<mxfile host="65bd71144e">
    <diagram id="DTphNBG-75G0FA541nVR" name="Página-1">
        <mxGraphModel dx="662" dy="518" grid="1" gridSize="10" guides="1" tooltips="1" connect="1" arrows="1" fold="1" page="1" pageScale="1" pageWidth="827" pageHeight="1169" math="0" shadow="0">
            <root>
                <mxCell id="0"/>
                <mxCell id="1" parent="0"/>
                <mxCell id="2" value="Aluno" style="whiteSpace=wrap;html=1;align=center;" vertex="1" parent="1">
                    <mxGeometry x="120" y="40" width="100" height="40" as="geometry"/>
                </mxCell>
                <mxCell id="3" value="Curso" style="whiteSpace=wrap;html=1;align=center;" vertex="1" parent="1">
                    <mxGeometry x="540" y="40" width="100" height="40" as="geometry"/>
                </mxCell>
                <mxCell id="4" value="Turma" style="whiteSpace=wrap;html=1;align=center;" vertex="1" parent="1">
                    <mxGeometry x="340" y="140" width="100" height="40" as="geometry"/>
                </mxCell>
                <mxCell id="8" value="Professor" style="whiteSpace=wrap;html=1;align=center;" vertex="1" parent="1">
                    <mxGeometry x="340" y="260" width="100" height="40" as="geometry"/>
                </mxCell>
                <mxCell id="10" value="" style="endArrow=none;html=1;rounded=0;entryX=0.5;entryY=1;entryDx=0;entryDy=0;exitX=0.5;exitY=0;exitDx=0;exitDy=0;" edge="1" parent="1" source="8" target="4">
                    <mxGeometry relative="1" as="geometry">
                        <mxPoint x="380" y="220" as="sourcePoint"/>
                        <mxPoint x="540" y="220" as="targetPoint"/>
                    </mxGeometry>
                </mxCell>
                <mxCell id="11" value="N" style="resizable=0;html=1;align=right;verticalAlign=bottom;" connectable="0" vertex="1" parent="10">
                    <mxGeometry x="1" relative="1" as="geometry">
                        <mxPoint x="-5" y="19" as="offset"/>
                    </mxGeometry>
                </mxCell>
                <mxCell id="12" value="" style="endArrow=none;html=1;rounded=0;edgeStyle=orthogonalEdgeStyle;" edge="1" parent="1">
                    <mxGeometry relative="1" as="geometry">
                        <mxPoint x="440" y="159.5" as="sourcePoint"/>
                        <mxPoint x="590" y="80" as="targetPoint"/>
                    </mxGeometry>
                </mxCell>
                <mxCell id="13" value="N" style="resizable=0;html=1;align=right;verticalAlign=bottom;" connectable="0" vertex="1" parent="12">
                    <mxGeometry x="1" relative="1" as="geometry">
                        <mxPoint x="-134" y="78" as="offset"/>
                    </mxGeometry>
                </mxCell>
                <mxCell id="14" value="" style="endArrow=none;html=1;rounded=0;edgeStyle=orthogonalEdgeStyle;exitX=0.57;exitY=1.025;exitDx=0;exitDy=0;exitPerimeter=0;" edge="1" parent="1" source="2">
                    <mxGeometry relative="1" as="geometry">
                        <mxPoint x="180" y="159.5" as="sourcePoint"/>
                        <mxPoint x="340" y="159.5" as="targetPoint"/>
                        <Array as="points">
                            <mxPoint x="177" y="160"/>
                        </Array>
                    </mxGeometry>
                </mxCell>
                <mxCell id="15" value="M" style="resizable=0;html=1;align=left;verticalAlign=bottom;" connectable="0" vertex="1" parent="14">
                    <mxGeometry x="-1" relative="1" as="geometry">
                        <mxPoint x="2" y="16" as="offset"/>
                    </mxGeometry>
                </mxCell>
                <mxCell id="16" value="N" style="resizable=0;html=1;align=right;verticalAlign=bottom;" connectable="0" vertex="1" parent="14">
                    <mxGeometry x="1" relative="1" as="geometry">
                        <mxPoint x="-5" y="-2" as="offset"/>
                    </mxGeometry>
                </mxCell>
            </root>
        </mxGraphModel>
    </diagram>
    <diagram id="13mMn4bcm4Vy-IukbLHg" name="Página-2">
        <mxGraphModel dx="832" dy="1525" grid="1" gridSize="10" guides="1" tooltips="1" connect="1" arrows="1" fold="1" page="1" pageScale="1" pageWidth="827" pageHeight="1169" math="0" shadow="0">
            <root>
                <mxCell id="0"/>
                <mxCell id="1" parent="0"/>
                <mxCell id="lJcPTYA7ePJ470RU5_wU-1" value="Aluno" style="swimlane;fontStyle=0;childLayout=stackLayout;horizontal=1;startSize=26;fillColor=none;horizontalStack=0;resizeParent=1;resizeParentMax=0;resizeLast=0;collapsible=1;marginBottom=0;" vertex="1" parent="1">
                    <mxGeometry x="80" y="40" width="160" height="364" as="geometry"/>
                </mxCell>
                <mxCell id="lJcPTYA7ePJ470RU5_wU-2" value="_id: Objectid" style="text;strokeColor=none;fillColor=none;align=left;verticalAlign=top;spacingLeft=4;spacingRight=4;overflow=hidden;rotatable=0;points=[[0,0.5],[1,0.5]];portConstraint=eastwest;" vertex="1" parent="lJcPTYA7ePJ470RU5_wU-1">
                    <mxGeometry y="26" width="160" height="26" as="geometry"/>
                </mxCell>
                <mxCell id="lJcPTYA7ePJ470RU5_wU-3" value="nome: String" style="text;strokeColor=none;fillColor=none;align=left;verticalAlign=top;spacingLeft=4;spacingRight=4;overflow=hidden;rotatable=0;points=[[0,0.5],[1,0.5]];portConstraint=eastwest;" vertex="1" parent="lJcPTYA7ePJ470RU5_wU-1">
                    <mxGeometry y="52" width="160" height="26" as="geometry"/>
                </mxCell>
                <mxCell id="lJcPTYA7ePJ470RU5_wU-4" value="cpf: String" style="text;strokeColor=none;fillColor=none;align=left;verticalAlign=top;spacingLeft=4;spacingRight=4;overflow=hidden;rotatable=0;points=[[0,0.5],[1,0.5]];portConstraint=eastwest;" vertex="1" parent="lJcPTYA7ePJ470RU5_wU-1">
                    <mxGeometry y="78" width="160" height="26" as="geometry"/>
                </mxCell>
                <mxCell id="lJcPTYA7ePJ470RU5_wU-13" value="data_nascimento: DateTime" style="text;strokeColor=none;fillColor=none;align=left;verticalAlign=top;spacingLeft=4;spacingRight=4;overflow=hidden;rotatable=0;points=[[0,0.5],[1,0.5]];portConstraint=eastwest;" vertex="1" parent="lJcPTYA7ePJ470RU5_wU-1">
                    <mxGeometry y="104" width="160" height="26" as="geometry"/>
                </mxCell>
                <mxCell id="lJcPTYA7ePJ470RU5_wU-14" value="logaradouro: String" style="text;strokeColor=none;fillColor=none;align=left;verticalAlign=top;spacingLeft=4;spacingRight=4;overflow=hidden;rotatable=0;points=[[0,0.5],[1,0.5]];portConstraint=eastwest;" vertex="1" parent="lJcPTYA7ePJ470RU5_wU-1">
                    <mxGeometry y="130" width="160" height="26" as="geometry"/>
                </mxCell>
                <mxCell id="lJcPTYA7ePJ470RU5_wU-15" value="num_imovel: String" style="text;strokeColor=none;fillColor=none;align=left;verticalAlign=top;spacingLeft=4;spacingRight=4;overflow=hidden;rotatable=0;points=[[0,0.5],[1,0.5]];portConstraint=eastwest;" vertex="1" parent="lJcPTYA7ePJ470RU5_wU-1">
                    <mxGeometry y="156" width="160" height="26" as="geometry"/>
                </mxCell>
                <mxCell id="lJcPTYA7ePJ470RU5_wU-60" value="num_imovel: String" style="text;strokeColor=none;fillColor=none;align=left;verticalAlign=top;spacingLeft=4;spacingRight=4;overflow=hidden;rotatable=0;points=[[0,0.5],[1,0.5]];portConstraint=eastwest;" vertex="1" parent="lJcPTYA7ePJ470RU5_wU-1">
                    <mxGeometry y="182" width="160" height="26" as="geometry"/>
                </mxCell>
                <mxCell id="lJcPTYA7ePJ470RU5_wU-16" value="complemento?: String" style="text;strokeColor=none;fillColor=none;align=left;verticalAlign=top;spacingLeft=4;spacingRight=4;overflow=hidden;rotatable=0;points=[[0,0.5],[1,0.5]];portConstraint=eastwest;" vertex="1" parent="lJcPTYA7ePJ470RU5_wU-1">
                    <mxGeometry y="208" width="160" height="26" as="geometry"/>
                </mxCell>
                <mxCell id="lJcPTYA7ePJ470RU5_wU-25" value="bairro: String" style="text;strokeColor=none;fillColor=none;align=left;verticalAlign=top;spacingLeft=4;spacingRight=4;overflow=hidden;rotatable=0;points=[[0,0.5],[1,0.5]];portConstraint=eastwest;" vertex="1" parent="lJcPTYA7ePJ470RU5_wU-1">
                    <mxGeometry y="234" width="160" height="26" as="geometry"/>
                </mxCell>
                <mxCell id="lJcPTYA7ePJ470RU5_wU-26" value="municipio: String" style="text;strokeColor=none;fillColor=none;align=left;verticalAlign=top;spacingLeft=4;spacingRight=4;overflow=hidden;rotatable=0;points=[[0,0.5],[1,0.5]];portConstraint=eastwest;" vertex="1" parent="lJcPTYA7ePJ470RU5_wU-1">
                    <mxGeometry y="260" width="160" height="26" as="geometry"/>
                </mxCell>
                <mxCell id="lJcPTYA7ePJ470RU5_wU-27" value="uf: String" style="text;strokeColor=none;fillColor=none;align=left;verticalAlign=top;spacingLeft=4;spacingRight=4;overflow=hidden;rotatable=0;points=[[0,0.5],[1,0.5]];portConstraint=eastwest;" vertex="1" parent="lJcPTYA7ePJ470RU5_wU-1">
                    <mxGeometry y="286" width="160" height="26" as="geometry"/>
                </mxCell>
                <mxCell id="lJcPTYA7ePJ470RU5_wU-28" value="email: String" style="text;strokeColor=none;fillColor=none;align=left;verticalAlign=top;spacingLeft=4;spacingRight=4;overflow=hidden;rotatable=0;points=[[0,0.5],[1,0.5]];portConstraint=eastwest;" vertex="1" parent="lJcPTYA7ePJ470RU5_wU-1">
                    <mxGeometry y="312" width="160" height="26" as="geometry"/>
                </mxCell>
                <mxCell id="lJcPTYA7ePJ470RU5_wU-29" value="telefone: String" style="text;strokeColor=none;fillColor=none;align=left;verticalAlign=top;spacingLeft=4;spacingRight=4;overflow=hidden;rotatable=0;points=[[0,0.5],[1,0.5]];portConstraint=eastwest;" vertex="1" parent="lJcPTYA7ePJ470RU5_wU-1">
                    <mxGeometry y="338" width="160" height="26" as="geometry"/>
                </mxCell>
                <mxCell id="lJcPTYA7ePJ470RU5_wU-5" value="Curso" style="swimlane;fontStyle=0;childLayout=stackLayout;horizontal=1;startSize=26;fillColor=none;horizontalStack=0;resizeParent=1;resizeParentMax=0;resizeLast=0;collapsible=1;marginBottom=0;" vertex="1" parent="1">
                    <mxGeometry x="640" y="100" width="140" height="130" as="geometry"/>
                </mxCell>
                <mxCell id="lJcPTYA7ePJ470RU5_wU-6" value="_id: Objectid" style="text;strokeColor=none;fillColor=none;align=left;verticalAlign=top;spacingLeft=4;spacingRight=4;overflow=hidden;rotatable=0;points=[[0,0.5],[1,0.5]];portConstraint=eastwest;" vertex="1" parent="lJcPTYA7ePJ470RU5_wU-5">
                    <mxGeometry y="26" width="140" height="26" as="geometry"/>
                </mxCell>
                <mxCell id="lJcPTYA7ePJ470RU5_wU-7" value="nome: String" style="text;strokeColor=none;fillColor=none;align=left;verticalAlign=top;spacingLeft=4;spacingRight=4;overflow=hidden;rotatable=0;points=[[0,0.5],[1,0.5]];portConstraint=eastwest;" vertex="1" parent="lJcPTYA7ePJ470RU5_wU-5">
                    <mxGeometry y="52" width="140" height="26" as="geometry"/>
                </mxCell>
                <mxCell id="lJcPTYA7ePJ470RU5_wU-8" value="nivel: String" style="text;strokeColor=none;fillColor=none;align=left;verticalAlign=top;spacingLeft=4;spacingRight=4;overflow=hidden;rotatable=0;points=[[0,0.5],[1,0.5]];portConstraint=eastwest;" vertex="1" parent="lJcPTYA7ePJ470RU5_wU-5">
                    <mxGeometry y="78" width="140" height="26" as="geometry"/>
                </mxCell>
                <mxCell id="lJcPTYA7ePJ470RU5_wU-47" value="area: String" style="text;strokeColor=none;fillColor=none;align=left;verticalAlign=top;spacingLeft=4;spacingRight=4;overflow=hidden;rotatable=0;points=[[0,0.5],[1,0.5]];portConstraint=eastwest;" vertex="1" parent="lJcPTYA7ePJ470RU5_wU-5">
                    <mxGeometry y="104" width="140" height="26" as="geometry"/>
                </mxCell>
                <mxCell id="lJcPTYA7ePJ470RU5_wU-9" value="Professor" style="swimlane;fontStyle=0;childLayout=stackLayout;horizontal=1;startSize=26;fillColor=none;horizontalStack=0;resizeParent=1;resizeParentMax=0;resizeLast=0;collapsible=1;marginBottom=0;" vertex="1" parent="1">
                    <mxGeometry x="640" y="400" width="160" height="234" as="geometry"/>
                </mxCell>
                <mxCell id="lJcPTYA7ePJ470RU5_wU-10" value="_id: Objectid" style="text;strokeColor=none;fillColor=none;align=left;verticalAlign=top;spacingLeft=4;spacingRight=4;overflow=hidden;rotatable=0;points=[[0,0.5],[1,0.5]];portConstraint=eastwest;" vertex="1" parent="lJcPTYA7ePJ470RU5_wU-9">
                    <mxGeometry y="26" width="160" height="26" as="geometry"/>
                </mxCell>
                <mxCell id="lJcPTYA7ePJ470RU5_wU-11" value="nome: String" style="text;strokeColor=none;fillColor=none;align=left;verticalAlign=top;spacingLeft=4;spacingRight=4;overflow=hidden;rotatable=0;points=[[0,0.5],[1,0.5]];portConstraint=eastwest;" vertex="1" parent="lJcPTYA7ePJ470RU5_wU-9">
                    <mxGeometry y="52" width="160" height="26" as="geometry"/>
                </mxCell>
                <mxCell id="lJcPTYA7ePJ470RU5_wU-12" value="formacao: String" style="text;strokeColor=none;fillColor=none;align=left;verticalAlign=top;spacingLeft=4;spacingRight=4;overflow=hidden;rotatable=0;points=[[0,0.5],[1,0.5]];portConstraint=eastwest;" vertex="1" parent="lJcPTYA7ePJ470RU5_wU-9">
                    <mxGeometry y="78" width="160" height="26" as="geometry"/>
                </mxCell>
                <mxCell id="lJcPTYA7ePJ470RU5_wU-34" value="formacao: String" style="text;strokeColor=none;fillColor=none;align=left;verticalAlign=top;spacingLeft=4;spacingRight=4;overflow=hidden;rotatable=0;points=[[0,0.5],[1,0.5]];portConstraint=eastwest;" vertex="1" parent="lJcPTYA7ePJ470RU5_wU-9">
                    <mxGeometry y="104" width="160" height="26" as="geometry"/>
                </mxCell>
                <mxCell id="lJcPTYA7ePJ470RU5_wU-30" value="cpf: String" style="text;strokeColor=none;fillColor=none;align=left;verticalAlign=top;spacingLeft=4;spacingRight=4;overflow=hidden;rotatable=0;points=[[0,0.5],[1,0.5]];portConstraint=eastwest;" vertex="1" parent="lJcPTYA7ePJ470RU5_wU-9">
                    <mxGeometry y="130" width="160" height="26" as="geometry"/>
                </mxCell>
                <mxCell id="lJcPTYA7ePJ470RU5_wU-31" value="data_nascimento: DateTime" style="text;strokeColor=none;fillColor=none;align=left;verticalAlign=top;spacingLeft=4;spacingRight=4;overflow=hidden;rotatable=0;points=[[0,0.5],[1,0.5]];portConstraint=eastwest;" vertex="1" parent="lJcPTYA7ePJ470RU5_wU-9">
                    <mxGeometry y="156" width="160" height="26" as="geometry"/>
                </mxCell>
                <mxCell id="lJcPTYA7ePJ470RU5_wU-32" value="email: String" style="text;strokeColor=none;fillColor=none;align=left;verticalAlign=top;spacingLeft=4;spacingRight=4;overflow=hidden;rotatable=0;points=[[0,0.5],[1,0.5]];portConstraint=eastwest;" vertex="1" parent="lJcPTYA7ePJ470RU5_wU-9">
                    <mxGeometry y="182" width="160" height="26" as="geometry"/>
                </mxCell>
                <mxCell id="lJcPTYA7ePJ470RU5_wU-33" value="telefone: String" style="text;strokeColor=none;fillColor=none;align=left;verticalAlign=top;spacingLeft=4;spacingRight=4;overflow=hidden;rotatable=0;points=[[0,0.5],[1,0.5]];portConstraint=eastwest;" vertex="1" parent="lJcPTYA7ePJ470RU5_wU-9">
                    <mxGeometry y="208" width="160" height="26" as="geometry"/>
                </mxCell>
                <mxCell id="lJcPTYA7ePJ470RU5_wU-43" value="Turma" style="swimlane;fontStyle=0;childLayout=stackLayout;horizontal=1;startSize=26;fillColor=none;horizontalStack=0;resizeParent=1;resizeParentMax=0;resizeLast=0;collapsible=1;marginBottom=0;" vertex="1" parent="1">
                    <mxGeometry x="350" y="270" width="140" height="130" as="geometry"/>
                </mxCell>
                <mxCell id="lJcPTYA7ePJ470RU5_wU-44" value="_id Objectid" style="text;strokeColor=none;fillColor=none;align=left;verticalAlign=top;spacingLeft=4;spacingRight=4;overflow=hidden;rotatable=0;points=[[0,0.5],[1,0.5]];portConstraint=eastwest;" vertex="1" parent="lJcPTYA7ePJ470RU5_wU-43">
                    <mxGeometry y="26" width="140" height="26" as="geometry"/>
                </mxCell>
                <mxCell id="lJcPTYA7ePJ470RU5_wU-45" value="dia_semana: String" style="text;strokeColor=none;fillColor=none;align=left;verticalAlign=top;spacingLeft=4;spacingRight=4;overflow=hidden;rotatable=0;points=[[0,0.5],[1,0.5]];portConstraint=eastwest;" vertex="1" parent="lJcPTYA7ePJ470RU5_wU-43">
                    <mxGeometry y="52" width="140" height="26" as="geometry"/>
                </mxCell>
                <mxCell id="lJcPTYA7ePJ470RU5_wU-46" value="hora_inicial: int" style="text;strokeColor=none;fillColor=none;align=left;verticalAlign=top;spacingLeft=4;spacingRight=4;overflow=hidden;rotatable=0;points=[[0,0.5],[1,0.5]];portConstraint=eastwest;" vertex="1" parent="lJcPTYA7ePJ470RU5_wU-43">
                    <mxGeometry y="78" width="140" height="26" as="geometry"/>
                </mxCell>
                <mxCell id="lJcPTYA7ePJ470RU5_wU-48" value="hora_final: int" style="text;strokeColor=none;fillColor=none;align=left;verticalAlign=top;spacingLeft=4;spacingRight=4;overflow=hidden;rotatable=0;points=[[0,0.5],[1,0.5]];portConstraint=eastwest;" vertex="1" parent="lJcPTYA7ePJ470RU5_wU-43">
                    <mxGeometry y="104" width="140" height="26" as="geometry"/>
                </mxCell>
                <mxCell id="lJcPTYA7ePJ470RU5_wU-53" value="" style="endArrow=diamondThin;endFill=1;endSize=24;html=1;shadow=0;edgeStyle=orthogonalEdgeStyle;entryX=0.5;entryY=0;entryDx=0;entryDy=0;exitX=0.707;exitY=-0.008;exitDx=0;exitDy=0;exitPerimeter=0;" edge="1" parent="1" source="lJcPTYA7ePJ470RU5_wU-43" target="lJcPTYA7ePJ470RU5_wU-9">
                    <mxGeometry width="160" relative="1" as="geometry">
                        <mxPoint x="450" y="260" as="sourcePoint"/>
                        <mxPoint x="710" y="240" as="targetPoint"/>
                    </mxGeometry>
                </mxCell>
                <mxCell id="lJcPTYA7ePJ470RU5_wU-54" value="" style="endArrow=diamondThin;endFill=1;endSize=24;html=1;shadow=0;edgeStyle=orthogonalEdgeStyle;entryX=0.5;entryY=0;entryDx=0;entryDy=0;exitX=0.571;exitY=0;exitDx=0;exitDy=0;exitPerimeter=0;" edge="1" parent="1" source="lJcPTYA7ePJ470RU5_wU-43" target="lJcPTYA7ePJ470RU5_wU-5">
                    <mxGeometry width="160" relative="1" as="geometry">
                        <mxPoint x="430" y="240" as="sourcePoint"/>
                        <mxPoint x="620" y="40" as="targetPoint"/>
                        <Array as="points">
                            <mxPoint x="430" y="40"/>
                            <mxPoint x="710" y="40"/>
                        </Array>
                    </mxGeometry>
                </mxCell>
                <mxCell id="lJcPTYA7ePJ470RU5_wU-55" value="" style="endArrow=diamondThin;endFill=0;endSize=24;html=1;shadow=0;edgeStyle=orthogonalEdgeStyle;entryX=0.357;entryY=0;entryDx=0;entryDy=0;entryPerimeter=0;exitX=0.75;exitY=0;exitDx=0;exitDy=0;" edge="1" parent="1" source="lJcPTYA7ePJ470RU5_wU-1" target="lJcPTYA7ePJ470RU5_wU-43">
                    <mxGeometry width="160" relative="1" as="geometry">
                        <mxPoint x="200" y="10" as="sourcePoint"/>
                        <mxPoint x="410" y="100" as="targetPoint"/>
                        <Array as="points">
                            <mxPoint x="200" y="10"/>
                            <mxPoint x="400" y="10"/>
                        </Array>
                    </mxGeometry>
                </mxCell>
                <mxCell id="lJcPTYA7ePJ470RU5_wU-56" value="N" style="text;html=1;align=center;verticalAlign=middle;resizable=0;points=[];autosize=1;strokeColor=none;fillColor=none;" vertex="1" parent="1">
                    <mxGeometry x="445" y="235" width="30" height="30" as="geometry"/>
                </mxCell>
                <mxCell id="lJcPTYA7ePJ470RU5_wU-57" value="N" style="text;html=1;align=center;verticalAlign=middle;resizable=0;points=[];autosize=1;strokeColor=none;fillColor=none;" vertex="1" parent="1">
                    <mxGeometry x="371" y="248" width="30" height="30" as="geometry"/>
                </mxCell>
                <mxCell id="lJcPTYA7ePJ470RU5_wU-58" value="N" style="text;html=1;align=center;verticalAlign=middle;resizable=0;points=[];autosize=1;strokeColor=none;fillColor=none;" vertex="1" parent="1">
                    <mxGeometry x="407" y="246" width="30" height="30" as="geometry"/>
                </mxCell>
                <mxCell id="lJcPTYA7ePJ470RU5_wU-59" value="M" style="text;html=1;align=center;verticalAlign=middle;resizable=0;points=[];autosize=1;strokeColor=none;fillColor=none;" vertex="1" parent="1">
                    <mxGeometry x="194" y="18" width="30" height="30" as="geometry"/>
                </mxCell>
            </root>
        </mxGraphModel>
    </diagram>
</mxfile>